<?xml version="1.0" encoding="UTF-8" standalone="no"?>
<svg
   id="Capa_1"
   data-name="Capa 1"
   viewBox="0 0 888.5927 1008.0581"
   version="1.1"
   sodipodi:docname="09318df9c6cf5f9e07bcc19f8a078ce3.svg"
   width="888.59271"
   height="1008.058"
   xmlns:inkscape="http://www.inkscape.org/namespaces/inkscape"
   xmlns:sodipodi="http://sodipodi.sourceforge.net/DTD/sodipodi-0.dtd"
   xmlns="http://www.w3.org/2000/svg"
   xmlns:svg="http://www.w3.org/2000/svg">
  <sodipodi:namedview
     id="namedview13"
     pagecolor="#ffffff"
     bordercolor="#666666"
     borderopacity="1.0"
     inkscape:pageshadow="2"
     inkscape:pageopacity="0.0"
     inkscape:pagecheckerboard="0" />
  <defs
     id="defs4">
    <style
       id="style2">
      .cls-1 {
        fill: #fff;
        stroke: #fff;
        stroke-miterlimit: 10;
      }
    </style>
  </defs>
  <path
     class="cls-1"
     d="m 416.62922,763.47895 c -24.19,-12.98 -48.38,-25.96 -72.58,-38.94 -79.56,29.74 -202.88,59.59 -263.759997,12.4 -31.68,-47.96 4.12,-115.2 31.859997,-152.24 132.7,-155.58 239.2,-218.05 446.09,-308.01 -4.72,-18.88 -9.44,-37.76 -14.16,-56.65 -145.78,45.71 -312.56,153.2 -400.06,237.2 -37.08,-28.16 -104.159997,-116.43 -67.269997,-180.56 38.119997,-39.06 104.299997,-24.32 155.779997,-24.78 5.9,-20.06 11.8,-40.12 17.7,-60.19 -33.62,-4.84 -118.78,-10.33 -154.009997,1.77 -160.22,52.41 -81.51,225.38 1.77,309.78 -55.63,62.84 -128.78,154.51 -83.2,256.68 96.299997,121.54 296.269997,52.74 401.839997,3.54 z"
     id="path6" />
  <path
     class="cls-1"
     d="m 243.14922,352.79895 c 21.83,-14.16 43.66,-28.32 65.5,-42.48 8.67,-84.06 90.36,-346.710005 194.72,-208.88 116.86,175.87 105.19,436.29 76.12,616.02 20.06,4.72 40.12,9.44 60.19,14.16 23.15,-128.03 19.89,-343.68 -7.08,-470.87 51.53,-14.74 126.09,-17.52 154.01,-1.77 92.7,49.44 10.94,143.7 -106.21,267.3 -2.36,29.5 -4.72,59.01 -7.08,88.51 94.2,-75.74 246.62,-199.91 208.89,-343.41 -62,-112.12 -175.03,-87.14 -265.53,-76.12 -27.75,-86.59 -67.87,-183.020005 -171.72,-194.73000485 -161.14,-3.54999995 -200.91,320.25000485 -201.8,352.27000485 z"
     id="path8" />
  <path
     class="cls-1"
     d="m 152.86922,563.44895 c 16.52,-11.8 33.04,-23.6 49.57,-35.4 103.25,92.28 261.62,173.46 352.27,201.8 154.78,55.62 360.86,67.08 212.42,-166.39 13.57,-12.98 27.14,-25.96 40.71,-38.94 61.8,74.78 106.79,178.46 51.34,254.91 -52.09,55.17 -151.57,54.87 -237.21,35.4 -36.33,76.02 -71.89,161.91 -138.07,187.63995 -98.53,26.48 -165.82,-53.32995 -203.58,-168.16995 18.29,-5.31 36.58,-10.62 54.88,-15.93 40.86,99.41 112.17,194.93995 185.87,60.18 20.05,-32.26 28.19,-62.66 31.86,-81.43 -120.73,-40.06 -306.71,-148.92 -400.06,-233.66 z"
     id="path10" />
</svg>
