<?xml version="1.0" encoding="UTF-8"?>
<svg id="Capa_1" xmlns="http://www.w3.org/2000/svg" version="1.1" viewBox="0 0 512 512">
  <!-- Generator: Adobe Illustrator 29.0.0, SVG Export Plug-In . SVG Version: 2.1.0 Build 186)  -->
  <defs>
    <style>
      .st0 {
        fill: #050505;
      }

      .st1 {
        display: none;
        fill: #fff;
      }

      .st2 {
        fill: #ff0303;
      }
    </style>
  </defs>
  <path class="st1" d="M0,0v512h512V0H0Z"/>
  <path class="st2" d="M201.5,223.5v-61c16,0,32.1-.7,48,.8,8,.8,14.8.7,22,4.9,20.2,11.5,21.4,43.5,1,55.4-18.3,10.7-43.5,6.9-64,6.9,0,0,.2,19,.2,31,80.3,105.9.3,1,80.3,105.9h39.5l-81-106c19.5-2.5,38.6-4.5,54-18.2,27-23.9,25.2-72.8-2-95.5-20.6-17.3-48.6-16.3-74-16.3h-40c-4.7,0-9-.1-16-.1v92.1h32Z"/>
  <polyline class="st0" points="169.5 261.5 201.5 261.5 201.5 230.5 169.5 230.5"/>
  <path class="st0" d="M493.5,290.5c-10.4-22.3-55.1-27.7-67-4-10.6,21.2,18.5,33,32,41.9,4.5,2.9,12.5,8,12.5,14.1s-11.1,11.9-17.5,10.6c-2.1-.4-4.2-1.4-6-2.6-7.7-4.9-11.6-13.8-22-9.4-1.8.8-3.6,1.7-4.4,3.6-3.9,8.8,8.7,17.4,15.4,20.3,15.7,6.8,39.4,8.1,50.3-6.2s4-5.1,5.8-8.4c8.7-20.8-16.7-33.6-31.1-42.1-5.2-3.1-20-11-11.8-18.4,9.1-8.2,16.9,4,24.8,6.1,7.1,1.9,12.9-2.9,19-5.6"/>
  <path class="st0" d="M110.8,349.6h13.2l10.6-27v44.9h19v-92h-23.1c-1.3,3.7-3,8.8-4.1,12-3.4,9.9-6.6,20-9.9,30s0,0,0,0c-3.8-9.5-6.9-19.3-10.3-29-1.2-3.5-3.2-9.8-4.4-13h-23.3"/>
  <path class="st0" d="M78.5,275.5v92h19v-45l13.3,27.1"/>
  <polyline class="st0" points="169.5 367.5 201.5 367.5 201.5 275.5 169.5 275.5"/>
  <polygon class="st0" points="340.5 367.5 410.5 367.5 410.5 349.5 361.5 349.5 361.5 329.5 410.5 329.5 410.5 312.5 361.5 312.5 361.5 293.5 410.5 293.5 410.5 275.5 340.5 275.5 340.5 367.5"/>
  <path class="st0" d="M47.5,326.5h0c22.8-1.9,32.6-30.5,15-45.8-7.3-7.3-35.2-6.2-50-6.2v92h16v-37h0l25.1,38h19.3c-6.5-10.5-15-24.2-25.4-41ZM28.8,312v-21.8c6,0,14.3-1,20,1.2,7.8,3,9,13.7,1.9,18.2-5.9,3.7-15.2,2.4-21.9,2.4h0Z"/>
  <path class="st0" d="M257.1,367.5l10.9-15-16.8-21-27,36"/>
  <path class="st0" d="M291.4,275.5l-10.9,15,16.8,21,27-36"/>
</svg>